<mxfile host="app.diagrams.net" modified="2022-06-23T07:58:40.808Z" agent="5.0 (Windows NT 10.0; Win64; x64) AppleWebKit/537.36 (KHTML, like Gecko) Chrome/102.0.0.0 Safari/537.36" version="19.0.2" etag="bmUF2W7mGoqri0QxJIYT" type="github">
  <diagram id="41E7xvjQ37hmUiaSopNY" name="Page-1">
    <mxGraphModel dx="981" dy="526" grid="1" gridSize="10" guides="1" tooltips="1" connect="1" arrows="1" fold="1" page="1" pageScale="1" pageWidth="827" pageHeight="1169" math="0" shadow="0">
      <root>
        <mxCell id="0" />
        <mxCell id="1" parent="0" />
        <mxCell id="Otnamd7bVitAFay6qP4V-55" value="" style="rounded=0;whiteSpace=wrap;html=1;fontSize=10;" vertex="1" parent="1">
          <mxGeometry x="29" y="50" width="781" height="710" as="geometry" />
        </mxCell>
        <mxCell id="Otnamd7bVitAFay6qP4V-44" value="" style="endArrow=classic;html=1;rounded=0;fontSize=10;" edge="1" parent="1">
          <mxGeometry width="50" height="50" relative="1" as="geometry">
            <mxPoint x="490" y="450" as="sourcePoint" />
            <mxPoint x="454.5" y="450.28999999999996" as="targetPoint" />
          </mxGeometry>
        </mxCell>
        <mxCell id="Otnamd7bVitAFay6qP4V-19" value="" style="rounded=1;whiteSpace=wrap;html=1;" vertex="1" parent="1">
          <mxGeometry x="640" y="130" width="150" height="135" as="geometry" />
        </mxCell>
        <mxCell id="Otnamd7bVitAFay6qP4V-20" value="D:/{resource}" style="rounded=1;whiteSpace=wrap;html=1;" vertex="1" parent="1">
          <mxGeometry x="670" y="120" width="90" height="30" as="geometry" />
        </mxCell>
        <mxCell id="Otnamd7bVitAFay6qP4V-17" value="" style="rounded=1;whiteSpace=wrap;html=1;" vertex="1" parent="1">
          <mxGeometry x="475" y="130" width="150" height="135" as="geometry" />
        </mxCell>
        <mxCell id="Otnamd7bVitAFay6qP4V-18" value="MySQL" style="rounded=1;whiteSpace=wrap;html=1;" vertex="1" parent="1">
          <mxGeometry x="505" y="120" width="90" height="30" as="geometry" />
        </mxCell>
        <mxCell id="Otnamd7bVitAFay6qP4V-15" value="" style="rounded=1;whiteSpace=wrap;html=1;" vertex="1" parent="1">
          <mxGeometry x="215" y="130" width="245" height="135" as="geometry" />
        </mxCell>
        <mxCell id="Otnamd7bVitAFay6qP4V-16" value="App/Server" style="rounded=1;whiteSpace=wrap;html=1;" vertex="1" parent="1">
          <mxGeometry x="292.5" y="120" width="90" height="30" as="geometry" />
        </mxCell>
        <mxCell id="Otnamd7bVitAFay6qP4V-13" value="" style="rounded=1;whiteSpace=wrap;html=1;" vertex="1" parent="1">
          <mxGeometry x="49" y="130" width="150" height="135" as="geometry" />
        </mxCell>
        <mxCell id="Otnamd7bVitAFay6qP4V-1" value="" style="shape=actor;whiteSpace=wrap;html=1;" vertex="1" parent="1">
          <mxGeometry x="99" y="160" width="50" height="60" as="geometry" />
        </mxCell>
        <mxCell id="Otnamd7bVitAFay6qP4V-2" value="" style="shape=datastore;whiteSpace=wrap;html=1;" vertex="1" parent="1">
          <mxGeometry x="520" y="160" width="60" height="60" as="geometry" />
        </mxCell>
        <mxCell id="Otnamd7bVitAFay6qP4V-5" value="" style="shape=document;whiteSpace=wrap;html=1;boundedLbl=1;" vertex="1" parent="1">
          <mxGeometry x="675" y="165" width="80" height="50" as="geometry" />
        </mxCell>
        <mxCell id="Otnamd7bVitAFay6qP4V-6" value="" style="shape=document;whiteSpace=wrap;html=1;boundedLbl=1;" vertex="1" parent="1">
          <mxGeometry x="350" y="170" width="80" height="50" as="geometry" />
        </mxCell>
        <mxCell id="Otnamd7bVitAFay6qP4V-7" value="" style="shape=document;whiteSpace=wrap;html=1;boundedLbl=1;" vertex="1" parent="1">
          <mxGeometry x="250" y="170" width="80" height="50" as="geometry" />
        </mxCell>
        <mxCell id="Otnamd7bVitAFay6qP4V-8" value="User" style="rounded=1;whiteSpace=wrap;html=1;" vertex="1" parent="1">
          <mxGeometry x="91.5" y="230" width="65" height="20" as="geometry" />
        </mxCell>
        <mxCell id="Otnamd7bVitAFay6qP4V-9" value="View" style="rounded=1;whiteSpace=wrap;html=1;" vertex="1" parent="1">
          <mxGeometry x="257.5" y="230" width="65" height="20" as="geometry" />
        </mxCell>
        <mxCell id="Otnamd7bVitAFay6qP4V-10" value="Controller" style="rounded=1;whiteSpace=wrap;html=1;" vertex="1" parent="1">
          <mxGeometry x="357.5" y="230" width="65" height="20" as="geometry" />
        </mxCell>
        <mxCell id="Otnamd7bVitAFay6qP4V-11" value="DB" style="rounded=1;whiteSpace=wrap;html=1;" vertex="1" parent="1">
          <mxGeometry x="517.5" y="230" width="65" height="20" as="geometry" />
        </mxCell>
        <mxCell id="Otnamd7bVitAFay6qP4V-12" value="FileSystem" style="rounded=1;whiteSpace=wrap;html=1;" vertex="1" parent="1">
          <mxGeometry x="675" y="230" width="82.5" height="20" as="geometry" />
        </mxCell>
        <mxCell id="Otnamd7bVitAFay6qP4V-14" value="Browser" style="rounded=1;whiteSpace=wrap;html=1;" vertex="1" parent="1">
          <mxGeometry x="79" y="120" width="90" height="30" as="geometry" />
        </mxCell>
        <mxCell id="Otnamd7bVitAFay6qP4V-21" value="&lt;b&gt;&lt;font style=&quot;font-size: 16px;&quot;&gt;Concept of main APP&lt;/font&gt;&lt;/b&gt;" style="rounded=0;whiteSpace=wrap;html=1;" vertex="1" parent="1">
          <mxGeometry x="49" y="20" width="231" height="60" as="geometry" />
        </mxCell>
        <mxCell id="Otnamd7bVitAFay6qP4V-27" value="&lt;font style=&quot;&quot;&gt;&lt;span style=&quot;font-size: 10px;&quot;&gt;- For local test app&lt;/span&gt;&lt;br&gt;&lt;span style=&quot;font-size: 10px;&quot;&gt;- in&amp;nbsp;&lt;/span&gt;&lt;span style=&quot;font-family: noto, notojp, notokr, Helvetica, &amp;quot;Microsoft YaHei&amp;quot;, &amp;quot;Apple SD Gothic Neo&amp;quot;, &amp;quot;Malgun Gothic&amp;quot;, &amp;quot;맑은 고딕&amp;quot;, Dotum, 돋움, sans-serif; background-color: rgb(253, 253, 253);&quot;&gt;&lt;font style=&quot;font-size: 10px;&quot;&gt;On-premise environment&lt;/font&gt;&lt;/span&gt;&lt;br&gt;&lt;/font&gt;" style="text;html=1;strokeColor=none;fillColor=none;align=left;verticalAlign=middle;whiteSpace=wrap;rounded=0;fontSize=16;" vertex="1" parent="1">
          <mxGeometry x="602.5" y="50" width="207.5" height="60" as="geometry" />
        </mxCell>
        <mxCell id="Otnamd7bVitAFay6qP4V-28" value="" style="endArrow=none;dashed=1;html=1;dashPattern=1 3;strokeWidth=2;rounded=0;fontSize=10;" edge="1" parent="1">
          <mxGeometry width="50" height="50" relative="1" as="geometry">
            <mxPoint x="209" y="751.1428571428571" as="sourcePoint" />
            <mxPoint x="207.5" y="120" as="targetPoint" />
          </mxGeometry>
        </mxCell>
        <mxCell id="Otnamd7bVitAFay6qP4V-29" value="" style="endArrow=none;dashed=1;html=1;dashPattern=1 3;strokeWidth=2;rounded=0;fontSize=10;" edge="1" parent="1">
          <mxGeometry width="50" height="50" relative="1" as="geometry">
            <mxPoint x="635" y="750" as="sourcePoint" />
            <mxPoint x="633.5" y="120" as="targetPoint" />
          </mxGeometry>
        </mxCell>
        <mxCell id="Otnamd7bVitAFay6qP4V-30" value="" style="endArrow=none;dashed=1;html=1;dashPattern=1 3;strokeWidth=2;rounded=0;fontSize=10;" edge="1" parent="1">
          <mxGeometry width="50" height="50" relative="1" as="geometry">
            <mxPoint x="469" y="750" as="sourcePoint" />
            <mxPoint x="467" y="121" as="targetPoint" />
          </mxGeometry>
        </mxCell>
        <mxCell id="Otnamd7bVitAFay6qP4V-31" value="" style="endArrow=classic;html=1;rounded=0;fontSize=10;" edge="1" parent="1">
          <mxGeometry width="50" height="50" relative="1" as="geometry">
            <mxPoint x="189" y="310" as="sourcePoint" />
            <mxPoint x="230" y="310" as="targetPoint" />
          </mxGeometry>
        </mxCell>
        <mxCell id="Otnamd7bVitAFay6qP4V-33" value="authorized user approach&lt;br&gt;with param (VO)" style="rounded=0;whiteSpace=wrap;html=1;fontSize=10;" vertex="1" parent="1">
          <mxGeometry x="60" y="295" width="128" height="75" as="geometry" />
        </mxCell>
        <mxCell id="Otnamd7bVitAFay6qP4V-34" value="send VO to Service" style="rounded=0;whiteSpace=wrap;html=1;fontSize=10;" vertex="1" parent="1">
          <mxGeometry x="229" y="295" width="97" height="75" as="geometry" />
        </mxCell>
        <mxCell id="Otnamd7bVitAFay6qP4V-37" value="" style="endArrow=classic;html=1;rounded=0;fontSize=10;" edge="1" parent="1">
          <mxGeometry width="50" height="50" relative="1" as="geometry">
            <mxPoint x="327" y="309.71" as="sourcePoint" />
            <mxPoint x="357" y="310" as="targetPoint" />
          </mxGeometry>
        </mxCell>
        <mxCell id="Otnamd7bVitAFay6qP4V-38" value="search String&lt;br&gt;(Resource Directory)&lt;br&gt;refer to VO" style="rounded=0;whiteSpace=wrap;html=1;fontSize=10;" vertex="1" parent="1">
          <mxGeometry x="357.5" y="295" width="97" height="75" as="geometry" />
        </mxCell>
        <mxCell id="Otnamd7bVitAFay6qP4V-39" value="" style="endArrow=classic;html=1;rounded=0;fontSize=10;" edge="1" parent="1">
          <mxGeometry width="50" height="50" relative="1" as="geometry">
            <mxPoint x="454.5" y="310.00000000000006" as="sourcePoint" />
            <mxPoint x="484.5" y="310.29" as="targetPoint" />
          </mxGeometry>
        </mxCell>
        <mxCell id="Otnamd7bVitAFay6qP4V-40" value="execute select Query&lt;br&gt;which generated by Service" style="rounded=0;whiteSpace=wrap;html=1;fontSize=10;" vertex="1" parent="1">
          <mxGeometry x="485.5" y="295" width="134.5" height="75" as="geometry" />
        </mxCell>
        <mxCell id="Otnamd7bVitAFay6qP4V-41" value="" style="endArrow=classic;html=1;rounded=0;fontSize=10;exitX=0.5;exitY=1;exitDx=0;exitDy=0;" edge="1" parent="1" source="Otnamd7bVitAFay6qP4V-40">
          <mxGeometry width="50" height="50" relative="1" as="geometry">
            <mxPoint x="537.75" y="400" as="sourcePoint" />
            <mxPoint x="553" y="430" as="targetPoint" />
          </mxGeometry>
        </mxCell>
        <mxCell id="Otnamd7bVitAFay6qP4V-42" value="return String" style="rounded=0;whiteSpace=wrap;html=1;fontSize=10;" vertex="1" parent="1">
          <mxGeometry x="485.5" y="430" width="134.5" height="75" as="geometry" />
        </mxCell>
        <mxCell id="Otnamd7bVitAFay6qP4V-46" value="search Resource&lt;br&gt;refer to String" style="rounded=0;whiteSpace=wrap;html=1;fontSize=10;" vertex="1" parent="1">
          <mxGeometry x="357.5" y="430" width="97" height="75" as="geometry" />
        </mxCell>
        <mxCell id="Otnamd7bVitAFay6qP4V-47" value="" style="endArrow=classic;html=1;rounded=0;fontSize=10;exitX=0.5;exitY=1;exitDx=0;exitDy=0;" edge="1" parent="1">
          <mxGeometry width="50" height="50" relative="1" as="geometry">
            <mxPoint x="405.71000000000004" y="505" as="sourcePoint" />
            <mxPoint x="650" y="560" as="targetPoint" />
            <Array as="points">
              <mxPoint x="406" y="560" />
            </Array>
          </mxGeometry>
        </mxCell>
        <mxCell id="Otnamd7bVitAFay6qP4V-48" value="return Resource" style="rounded=0;whiteSpace=wrap;html=1;fontSize=10;" vertex="1" parent="1">
          <mxGeometry x="655.5" y="523" width="134.5" height="75" as="geometry" />
        </mxCell>
        <mxCell id="Otnamd7bVitAFay6qP4V-49" value="" style="endArrow=classic;html=1;rounded=0;fontSize=10;entryX=1;entryY=0.25;entryDx=0;entryDy=0;" edge="1" parent="1" target="Otnamd7bVitAFay6qP4V-50">
          <mxGeometry width="50" height="50" relative="1" as="geometry">
            <mxPoint x="725.71" y="598" as="sourcePoint" />
            <mxPoint x="340" y="673" as="targetPoint" />
            <Array as="points">
              <mxPoint x="725.71" y="673" />
            </Array>
          </mxGeometry>
        </mxCell>
        <mxCell id="Otnamd7bVitAFay6qP4V-50" value="send Resource&lt;br&gt;to View" style="rounded=0;whiteSpace=wrap;html=1;fontSize=10;" vertex="1" parent="1">
          <mxGeometry x="357.5" y="655" width="97" height="75" as="geometry" />
        </mxCell>
        <mxCell id="Otnamd7bVitAFay6qP4V-51" value="" style="endArrow=classic;html=1;rounded=0;fontSize=10;" edge="1" parent="1">
          <mxGeometry width="50" height="50" relative="1" as="geometry">
            <mxPoint x="356.25" y="674" as="sourcePoint" />
            <mxPoint x="320.75" y="674.29" as="targetPoint" />
          </mxGeometry>
        </mxCell>
        <mxCell id="Otnamd7bVitAFay6qP4V-52" value="return Resource&lt;br&gt;match with VO" style="rounded=0;whiteSpace=wrap;html=1;fontSize=10;" vertex="1" parent="1">
          <mxGeometry x="223.5" y="655" width="97" height="75" as="geometry" />
        </mxCell>
        <mxCell id="Otnamd7bVitAFay6qP4V-53" value="" style="endArrow=classic;html=1;rounded=0;fontSize=10;" edge="1" parent="1">
          <mxGeometry width="50" height="50" relative="1" as="geometry">
            <mxPoint x="222" y="674" as="sourcePoint" />
            <mxPoint x="186.5" y="674.29" as="targetPoint" />
          </mxGeometry>
        </mxCell>
        <mxCell id="Otnamd7bVitAFay6qP4V-54" value="view resource" style="rounded=0;whiteSpace=wrap;html=1;fontSize=10;" vertex="1" parent="1">
          <mxGeometry x="58" y="655" width="128" height="75" as="geometry" />
        </mxCell>
      </root>
    </mxGraphModel>
  </diagram>
</mxfile>
